<?xml version="1.0" encoding="UTF-8" standalone="no"?>
<!-- Created with Inkscape (http://www.inkscape.org/) -->

<svg
   xmlns:dc="http://purl.org/dc/elements/1.1/"
   xmlns:cc="http://creativecommons.org/ns#"
   xmlns:rdf="http://www.w3.org/1999/02/22-rdf-syntax-ns#"
   xmlns:svg="http://www.w3.org/2000/svg"
   xmlns="http://www.w3.org/2000/svg"
   xmlns:sodipodi="http://sodipodi.sourceforge.net/DTD/sodipodi-0.dtd"
   xmlns:inkscape="http://www.inkscape.org/namespaces/inkscape"
   width="19.999983"
   height="19.999393"
   viewBox="0 0 19.999983 19.999393"
   id="svg11720"
   version="1.1"
   inkscape:version="0.91 r13725"
   sodipodi:docname="acera2.svg">
  <defs
     id="defs11722">
    <clipPath
       clipPathUnits="userSpaceOnUse"
       id="clipPath7304">
      <path
         d="m 0,0 873,0 0,288.75 -873,0 L 0,0 Z"
         id="path7306"
         inkscape:connector-curvature="0"
         style="clip-rule:evenodd" />
    </clipPath>
    <clipPath
       clipPathUnits="userSpaceOnUse"
       id="clipPath7310">
      <path
         d="m 0,0 873,0 0,288.75 -873,0 L 0,0 Z"
         id="path7312"
         inkscape:connector-curvature="0"
         style="clip-rule:evenodd" />
    </clipPath>
    <clipPath
       clipPathUnits="userSpaceOnUse"
       id="clipPath7316">
      <path
         d="m 9,9 278.25001,0 0,250.71276 L 9,259.71276 9,9 Z"
         id="path7318"
         inkscape:connector-curvature="0"
         style="clip-rule:evenodd" />
    </clipPath>
  </defs>
  <sodipodi:namedview
     id="base"
     pagecolor="#ffffff"
     bordercolor="#666666"
     borderopacity="1.0"
     inkscape:pageopacity="0.0"
     inkscape:pageshadow="2"
     inkscape:zoom="11.313708"
     inkscape:cx="4.4938694"
     inkscape:cy="16.731554"
     inkscape:document-units="px"
     inkscape:current-layer="layer1"
     showgrid="false"
     fit-margin-top="0"
     fit-margin-left="0"
     fit-margin-right="0"
     fit-margin-bottom="0"
     units="px"
     inkscape:window-width="1366"
     inkscape:window-height="705"
     inkscape:window-x="-8"
     inkscape:window-y="-8"
     inkscape:window-maximized="1" />
  <metadata
     id="metadata11725">
    <rdf:RDF>
      <cc:Work
         rdf:about="">
        <dc:format>image/svg+xml</dc:format>
        <dc:type
           rdf:resource="http://purl.org/dc/dcmitype/StillImage" />
        <dc:title></dc:title>
      </cc:Work>
    </rdf:RDF>
  </metadata>
  <g
     inkscape:label="Layer 1"
     inkscape:groupmode="layer"
     id="layer1"
     transform="translate(-8.4135522,-1038.0781)">
    <g
       id="g7326"
       transform="matrix(1.1219759,0,0,1.1192534,226.09375,404.23816)" />
    <g
       id="g7372"
       transform="matrix(1.1219759,0,0,1.1192534,226.09375,404.23816)" />
    <path
       style="fill:#c1c1c1;fill-opacity:1;fill-rule:evenodd;stroke:#000000;stroke-width:0.12201504;stroke-miterlimit:4;stroke-dasharray:none"
       inkscape:connector-curvature="0"
       d="m 28.092361,1041.1884 c 0.462262,3.1531 0.263961,14.4653 -0.247316,15.6894 -0.475464,1.1377 -0.950517,0.649 -2.212901,1.1365 -1.333989,-0.249 -2.721993,-0.5254 -4.120086,-0.2532 -2.616352,-0.08 -4.703553,0 -7.273714,-0.3799 -1.402765,0.2533 -2.90239,0.5799 -4.3211509,-0.1003 -2.2836258,-1.2751 -1.1101478,-5.4646 -1.3480675,-7.9366 0.065778,-3.9834 -0.022808,-6.2271 0.1703316,-8.5869 -0.1860171,-1.1346 -0.3250595,-0.7753 0.2440738,-2.4323 2.366467,0 5.644868,0 7.562628,-0.1857 1.549334,0.1772 3.995141,0.1219 5.67142,0.1144 1.756762,-0.2702 3.349772,0.3799 4.767068,0.6572 1.630366,0 0.64547,-0.8834 1.107739,2.2704 z"
       id="path2386" />
    <g
       id="g7492"
       transform="matrix(1.1219759,0,0,1.1192534,226.09375,404.23816)" />
    <g
       id="g7500"
       transform="matrix(1.1219759,0,0,1.1192534,226.09375,404.23816)" />
    <g
       id="g7566"
       transform="matrix(1.1219759,0,0,1.1192534,226.09375,404.23816)" />
    <g
       id="g7574"
       transform="matrix(1.1219759,0,0,1.1192534,226.09375,404.23816)" />
    <g
       id="g7582"
       transform="matrix(1.1219759,0,0,1.1192534,226.09375,404.23816)" />
    <g
       id="g7598"
       transform="matrix(1.1219759,0,0,1.1192534,226.09375,404.23816)" />
    <g
       id="g7606"
       transform="matrix(1.1219759,0,0,1.1192534,226.09375,404.23816)" />
    <g
       id="g7612"
       transform="matrix(1.1219759,0,0,1.1192534,226.09375,404.23816)" />
    <g
       id="g7618"
       transform="matrix(1.1219759,0,0,1.1192534,226.09375,404.23816)" />
    <g
       id="g7624"
       transform="matrix(1.1219759,0,0,1.1192534,226.09375,404.23816)" />
    <g
       id="g7696"
       transform="matrix(1.1219759,0,0,1.1192534,226.09375,404.23816)" />
    <g
       id="g7704"
       transform="matrix(1.1219759,0,0,1.1192534,226.09375,404.23816)" />
    <g
       id="g7712"
       transform="matrix(1.1219759,0,0,1.1192534,226.09375,404.23816)" />
    <g
       id="g7720"
       transform="matrix(1.1219759,0,0,1.1192534,226.09375,404.23816)" />
    <g
       id="g7728"
       transform="matrix(1.1219759,0,0,1.1192534,226.09375,404.23816)" />
    <g
       id="g7736"
       transform="matrix(1.1219759,0,0,1.1192534,226.09375,404.23816)" />
    <path
       style="fill:#501616;fill-opacity:1;stroke:none"
       d="m 24.794351,1057.7813 c -0.975879,-0.1762 -1.860539,-0.2347 -2.647177,-0.1752 -0.732357,0.055 -4.460384,0.01 -5.603185,-0.075 -0.428643,-0.03 -1.1227,-0.096 -1.542349,-0.1456 -0.748795,-0.089 -0.77631,-0.088 -1.478078,0.039 -0.9506,0.1717 -2.364272,0.1863 -2.891886,0.03 -1.0637651,-0.3155 -1.6602263,-0.9746 -1.9082361,-2.1085 -0.1380186,-0.6311 -0.1878613,-1.6826 -0.1300721,-2.7441 0.029015,-0.5329 0.063776,-2.8413 0.077245,-5.1297 0.013469,-2.2884 0.051139,-4.7526 0.083712,-5.4759 0.052529,-1.1664 0.049055,-1.3693 -0.030732,-1.7954 l -0.089955,-0.4804 0.1934556,-0.6345 0.1934557,-0.6346 2.1358349,-0.034 c 1.174708,-0.019 2.837249,-0.065 3.694534,-0.1014 1.847192,-0.079 1.448356,-0.08 3.511699,0 1.255805,0.052 2.103522,0.053 3.332394,0.01 2.095383,-0.077 2.220681,-0.064 4.25493,0.4323 1.051586,0.2568 1.320236,0.2793 1.814004,0.152 0.120038,-0.031 0.120935,-0.026 0.120995,0.6162 3.3e-5,0.3561 0.04678,1.0321 0.103909,1.5023 0.212987,1.7536 0.245285,2.6431 0.243168,6.6972 -0.002,3.8867 -0.04807,5.4551 -0.217488,7.4097 -0.108306,1.2496 -0.194363,1.6695 -0.411366,2.0074 -0.21368,0.3327 -0.358283,0.4096 -0.987608,0.5253 -0.269486,0.05 -0.6081,0.1281 -0.752476,0.1746 -0.144377,0.046 -0.274596,0.082 -0.289376,0.079 -0.01478,0 -0.365489,-0.067 -0.779351,-0.1421 z"
       id="path4158"
       inkscape:connector-curvature="0" />
  </g>
</svg>
