<?xml version="1.0" encoding="UTF-8" standalone="no"?>
<!-- Created with Inkscape (http://www.inkscape.org/) -->

<svg
   xmlns:dc="http://purl.org/dc/elements/1.1/"
   xmlns:cc="http://creativecommons.org/ns#"
   xmlns:rdf="http://www.w3.org/1999/02/22-rdf-syntax-ns#"
   xmlns:svg="http://www.w3.org/2000/svg"
   xmlns="http://www.w3.org/2000/svg"
   xmlns:sodipodi="http://sodipodi.sourceforge.net/DTD/sodipodi-0.dtd"
   xmlns:inkscape="http://www.inkscape.org/namespaces/inkscape"
   width="15.999345"
   height="15.994778"
   viewBox="0 0 15.999345 15.994778"
   id="svg11720"
   version="1.1"
   inkscape:version="0.91 r13725"
   sodipodi:docname="acera.svg">
  <defs
     id="defs11722">
    <clipPath
       clipPathUnits="userSpaceOnUse"
       id="clipPath7304">
      <path
         d="m 0,0 873,0 0,288.75 -873,0 L 0,0 Z"
         id="path7306"
         inkscape:connector-curvature="0"
         style="clip-rule:evenodd" />
    </clipPath>
    <clipPath
       clipPathUnits="userSpaceOnUse"
       id="clipPath7310">
      <path
         d="m 0,0 873,0 0,288.75 -873,0 L 0,0 Z"
         id="path7312"
         inkscape:connector-curvature="0"
         style="clip-rule:evenodd" />
    </clipPath>
    <clipPath
       clipPathUnits="userSpaceOnUse"
       id="clipPath7316">
      <path
         d="m 9,9 278.25001,0 0,250.71276 L 9,259.71276 9,9 Z"
         id="path7318"
         inkscape:connector-curvature="0"
         style="clip-rule:evenodd" />
    </clipPath>
  </defs>
  <sodipodi:namedview
     id="base"
     pagecolor="#ffffff"
     bordercolor="#666666"
     borderopacity="1.0"
     inkscape:pageopacity="0.0"
     inkscape:pageshadow="2"
     inkscape:zoom="22.4"
     inkscape:cx="16.190714"
     inkscape:cy="12.505651"
     inkscape:document-units="px"
     inkscape:current-layer="layer1"
     showgrid="false"
     fit-margin-top="0"
     fit-margin-left="0"
     fit-margin-right="0"
     fit-margin-bottom="0"
     units="px"
     inkscape:window-width="1366"
     inkscape:window-height="705"
     inkscape:window-x="-8"
     inkscape:window-y="-8"
     inkscape:window-maximized="1" />
  <metadata
     id="metadata11725">
    <rdf:RDF>
      <cc:Work
         rdf:about="">
        <dc:format>image/svg+xml</dc:format>
        <dc:type
           rdf:resource="http://purl.org/dc/dcmitype/StillImage" />
        <dc:title></dc:title>
      </cc:Work>
    </rdf:RDF>
  </metadata>
  <g
     inkscape:label="Layer 1"
     inkscape:groupmode="layer"
     id="layer1"
     transform="translate(-13.121566,-1038.2143)">
    <g
       id="g7326"
       transform="matrix(1.1219759,0,0,1.1192534,226.09375,404.23816)" />
    <g
       id="g7372"
       transform="matrix(1.1219759,0,0,1.1192534,226.09375,404.23816)" />
    <g
       id="g14542"
       transform="matrix(1.0002443,0,0,1.0140925,-0.00144055,-14.85542)">
      <path
         id="path2386"
         d="m 28.469667,1050.1883 c 0.11553,0.7471 0.06597,3.4273 -0.06181,3.7173 -0.11883,0.2696 -0.237557,0.1538 -0.553057,0.2693 -0.333395,-0.059 -0.68029,-0.1245 -1.029707,-0.06 -0.653888,-0.019 -1.175529,0 -1.817873,-0.09 -0.350584,0.06 -0.725376,0.1374 -1.079958,-0.024 -0.570732,-0.3021 -0.277452,-1.2947 -0.336914,-1.8804 0.01644,-0.9438 -0.0057,-1.4754 0.04257,-2.0345 -0.04649,-0.2688 -0.08124,-0.1837 0.061,-0.5763 0.591436,0 1.410786,0 1.89008,-0.044 0.387215,0.042 0.99848,0.029 1.417422,0.027 0.439056,-0.064 0.837187,0.09 1.191403,0.1557 0.407467,0 0.161318,-0.2093 0.27685,0.5379 z"
         inkscape:connector-curvature="0"
         style="fill:#c1c1c1;fill-opacity:1;fill-rule:evenodd;stroke:#000000;stroke-width:0.06368181px" />
      <path
         id="path2388"
         d="m 28.889501,1049.4805 c -0.264858,-0.022 -0.540187,0.059 -0.797351,-0.05 -0.200618,-0.1153 -0.589801,-0.1153 -0.811257,-0.074 -0.526325,-0.019 -0.879521,-0.059 -1.405795,-0.062 -0.187951,-0.066 -0.389231,0.1227 -0.573155,0.033 -0.07118,-0.2574 0.02579,-0.6448 0.0059,-0.9094 0.04998,-0.2785 0.02622,-0.585 -0.02535,-0.8844 -0.01741,-0.4764 -0.08157,-0.9043 -0.06931,-1.3817 -0.07321,-0.2245 0.355985,-0.4773 0.486366,-0.3782 0.741376,0.093 1.313084,0.163 2.057876,0.1667 0.200705,-0.026 0.681268,-0.062 0.881502,0.019 0.183065,0.043 0.273033,-0.1962 0.343905,0.083 0.06147,0.2487 -0.01592,0.8071 0.0011,1.0629 -0.0045,0.3106 -0.0691,0.6261 -0.0095,0.9285 -0.02907,0.3273 -0.0858,0.6562 -0.05044,0.9867 -4.33e-4,0.1538 -0.0075,0.3097 -0.03445,0.4602 z"
         inkscape:connector-curvature="0"
         style="fill:#c1c1c1;fill-opacity:1;fill-rule:evenodd;stroke:#000000;stroke-width:0.0515034px" />
      <path
         id="path2390"
         d="m 24.555166,1041.9146 c -0.312867,0 -0.699069,-0.035 -1.012166,-0.04 -0.08363,0.3406 -0.274319,2.6126 0.0159,3.7443 0.584415,0.2465 1.394872,0.1392 1.751618,0.053 1.230543,-0.067 1.813692,0.075 3.045018,0.073 0.176779,-0.097 0.365723,-0.4016 0.292049,-0.571 -0.03718,-0.8892 0.08447,-1.3919 -0.01885,-2.161 -0.02404,-0.2291 0.188486,-0.7668 -0.0187,-0.9128 -0.199267,-0.095 -0.423767,-0.04 -0.634807,-0.046 -0.379113,0.027 -0.760432,0.1025 -1.139854,0.038 -0.761083,-0.043 -1.51579,-0.1966 -2.280197,-0.1776 z"
         inkscape:connector-curvature="0"
         style="fill:#c1c1c1;fill-opacity:1;fill-rule:evenodd;stroke:#000000;stroke-width:0.06156759px" />
      <path
         id="path2392"
         d="m 25.312814,1038.5882 c -0.290065,0.088 -0.240118,0.5668 -0.163739,0.9533 0.0155,0.6459 0.006,1.5336 0.0013,2.1806 0.07508,0.2137 0.316252,0.067 0.478304,0.053 0.206377,0 0.414355,0.059 0.615751,0.1264 0.306189,0.035 0.662414,-0.019 0.968483,0.033 0.419188,0.031 0.790831,-0.029 1.209237,-0.081 0.18274,0 0.366534,0.1391 0.494557,-0.081 0.115768,-0.1741 0.181752,-0.5274 0.122616,-0.7474 0.05634,-0.673 0.09502,-1.3678 -0.06139,-2.1172 -0.04615,-0.2429 -0.367973,-0.1409 -0.52349,-0.1373 -0.931963,-0.019 -1.723247,-0.088 -2.655539,-0.088 -0.09279,-5e-4 -0.393297,-0.095 -0.486082,-0.093 z"
         inkscape:connector-curvature="0"
         style="fill:#c1c1c1;fill-opacity:1;fill-rule:evenodd;stroke:#000000;stroke-width:0.05317609px" />
      <path
         id="path2394"
         d="m 22.810646,1049.4852 c 0.297159,0.1594 0.433701,-0.3597 0.648478,0.2165 0.175522,0.7796 -0.03435,1.0957 0.01545,2.7172 -0.01852,0.4867 0.06583,1.1337 -0.09252,1.5529 -0.10499,0.223 -0.434715,0.152 -0.592442,0.1044 -1.048051,0.2753 -2.283373,-0.079 -3.387667,0.1154 -0.213661,-0.026 -0.368448,-0.1429 -0.57658,-0.2293 -0.176571,-0.7044 -0.05977,-1.4779 -0.03831,-2.2106 -0.01243,-0.6451 -0.216939,-1.7984 0.0099,-2.3537 0.342245,-0.071 0.432376,-0.086 0.574839,-0.043 0.757554,0.067 1.505438,0.1044 2.263027,0.1963 0.246365,-0.026 0.499627,0 0.735441,-0.1483 0.02962,0 0.41021,0.079 0.440397,0.081 z"
         inkscape:connector-curvature="0"
         style="fill:#c1c1c1;fill-opacity:1;fill-rule:evenodd;stroke:#000000;stroke-width:0.03264673px" />
      <path
         id="path2396"
         d="m 25.086863,1049.3546 c -0.600217,0 -1.201266,0.031 -1.800167,-0.038 -0.469359,0 -0.939026,0.019 -1.407953,-0.019 -0.184065,0.036 -0.49899,0.1845 -0.571782,-0.1685 0.03228,-0.5964 0.05589,-1.1929 0.04106,-1.7911 -0.0027,-0.4843 -0.0078,-0.9685 -8.76e-4,-1.4526 0.207115,-0.1648 0.467957,-0.174 0.697085,-0.1336 0.557023,-0.019 0.914707,-0.052 1.376941,0.093 0.236768,-0.062 0.506347,-0.055 0.732741,0.1005 0.234535,0.021 0.468541,-0.05 0.70383,0 0.349123,-0.019 0.231302,0.5826 0.25713,0.8943 0.04793,0.4427 0.05722,0.8852 0.0381,1.3333 0.0104,0.3916 0.112186,0.8378 -0.06611,1.1866 z"
         inkscape:connector-curvature="0"
         style="fill:#c1c1c1;fill-opacity:1;fill-rule:evenodd;stroke:#000000;stroke-width:0.05427905px" />
      <path
         id="path2398"
         d="m 20.649812,1049.3556 c -0.337269,0 -0.677004,0.02 -1.010578,-0.06 -0.245143,-0.019 -0.494505,0.019 -0.734587,-0.071 -0.231996,-0.019 -1.233043,0.06 -1.463958,-8e-4 -0.722928,0.1703 -0.521199,-0.9199 -0.52394,-1.85 -0.0073,-0.3455 -0.06896,-0.6863 -0.01493,-1.0219 0.02224,-0.2424 0.0023,-0.4889 0.03104,-0.7306 0.17793,-0.1116 0.353963,-0.1153 0.537122,-0.1446 0.445189,0.019 1.410057,0.1557 1.854809,0.1722 0.19916,0.033 0.523558,0.1244 0.724677,0.084 0.236972,-0.029 0.472228,0.031 0.70821,0.036 0.183991,-0.019 0.51343,-0.086 0.482502,0.3049 -0.0023,0.4614 -0.0442,0.9205 -0.04817,1.3814 0.01875,0.3721 0.07737,0.7591 -0.0266,1.1187 -0.0838,0.2484 0.09258,0.6983 -0.136878,0.806 -0.127213,0 -0.251052,-0.048 -0.37872,-0.024 z"
         inkscape:connector-curvature="0"
         style="fill:#c1c1c1;fill-opacity:1;fill-rule:evenodd;stroke:#000000;stroke-width:0.05377729px" />
      <path
         id="path2400"
         d="m 23.168425,1045.6351 -0.479739,-0.026 c -0.115197,8e-4 -0.230394,0 -0.345591,0 -0.34559,0 -0.69118,0 -1.036771,0 -0.357833,0 -0.661282,-0.093 -1.037132,-0.091 -0.44244,0 -0.741865,0.1117 -1.126238,-0.022 -0.355122,-0.1227 -0.01804,0.057 -0.373983,-0.066 -0.399211,-0.1391 -0.140936,-0.7328 -0.143268,-1.3663 -0.0019,-0.5215 0.135008,-0.8769 0.1332,-1.3678 -0.0025,-0.6646 -0.152872,-0.6654 0.06552,-0.9767 0.108183,-0.1538 0.223168,-0.098 0.393614,-0.1004 0.371272,0 0.692509,0.093 1.03713,0.092 0.350183,0 0.646704,0.088 1.012674,0.086 0.34559,0 0.715617,0 1.061207,0 0.366605,0 0.555786,0 0.890616,0.1208 0.239827,0.083 0.108513,1.3928 0.08318,1.5392 -0.07379,0.4262 0.0038,1.0232 0.0054,1.4646 0.0011,0.3074 0.112081,0.6329 -0.139807,0.7131 z"
         inkscape:connector-curvature="0"
         style="fill:#c1c1c1;fill-opacity:1;fill-rule:evenodd;stroke:#000000;stroke-width:0.05317609px" />
      <path
         id="path2402"
         d="m 24.963843,1041.7593 c -0.252711,0.036 -0.887845,-0.064 -1.252765,-0.062 -0.377956,0 -0.567459,-0.095 -0.968014,-0.091 -0.383381,0 -0.65031,0 -0.967652,0 -0.230858,0 -0.524026,0.2304 -0.898854,-0.081 -0.0319,-0.026 -0.0057,-1.5395 -0.0061,-1.6717 -0.002,-0.554 0.03093,-0.9766 0.133563,-1.2702 0.8696,-0.2345 2.001626,-0.084 2.90332,0.081 0.292722,0.1004 0.765066,-0.1226 0.992195,0.024 0.237246,0.152 0.1276,1.4699 0.128087,1.6022 0.0021,0.6025 0.121109,1.3621 -0.06373,1.465 z"
         inkscape:connector-curvature="0"
         style="fill:#c1c1c1;fill-opacity:1;fill-rule:evenodd;stroke:#000000;stroke-width:0.05317609px" />
      <path
         id="path2404"
         d="m 20.693378,1041.5598 c -0.541703,0.019 -1.083655,-0.019 -1.624506,-0.029 -0.337571,0.035 -0.662871,-0.1117 -0.997133,-0.13 -0.345252,-0.1593 -0.227813,-0.8418 -0.27536,-1.2394 -0.03714,-0.4385 -0.04069,-0.8931 0.02357,-1.3242 -0.01073,-0.4171 0.315712,-0.2634 0.536898,-0.2374 0.667799,-0.1098 1.345336,-0.1592 2.008025,-0.035 0.256437,-0.1134 0.56029,0.11 0.431663,0.535 -0.04927,0.5438 -0.08077,1.09 -0.05425,1.6382 -6.2e-4,0.2734 0.0068,0.5583 -0.0489,0.822 z"
         inkscape:connector-curvature="0"
         style="fill:#c1c1c1;fill-opacity:1;fill-rule:evenodd;stroke:#000000;stroke-width:0.05317609px" />
      <path
         id="path2406"
         d="m 18.523668,1049.6162 c 0.0014,0.9853 -0.0034,1.9714 0.05734,2.9536 -0.07202,0.4634 0.190575,1.2479 -0.177181,1.4813 -1.208033,-0.026 -3.144513,0 -4.353593,0.019 -0.306336,0.1895 -0.717448,0.031 -0.8431,-0.4342 -0.149801,-0.6494 0.02376,-1.5148 0.04551,-2.169 0.04341,-0.7149 -0.02192,-1.2486 0.125923,-1.9462 0.188537,-0.2557 0.48727,-0.055 0.724112,-0.1004 1.146769,0.048 3.019852,-0.019 4.166828,0 0.09652,0.033 0.163323,0.1483 0.254165,0.1992 z"
         inkscape:connector-curvature="0"
         style="fill:#c1c1c1;fill-opacity:1;fill-rule:evenodd;stroke:#000000;stroke-width:0.05317609px" />
      <path
         id="path2408"
         d="m 16.581113,1045.5945 c -0.493993,0.052 -2.435173,-0.035 -2.929032,-0.019 -0.184837,0.3009 -0.21018,0.9145 -0.198315,1.3782 -0.0037,0.582 -0.02623,1.1622 -0.02871,1.7444 0.07857,0.4155 0.309776,0.644 0.508903,0.5406 0.148416,0.02 1.75095,0.097 1.897862,0.02 0.279676,0.053 0.564741,0.077 0.840696,-0.038 0.108622,-0.045 0.111941,-0.324 0.09341,-0.5109 0.002,-0.244 0.04059,-0.4859 0.02301,-0.734 -0.0512,-0.6055 0.02123,-1.2238 -0.02734,-1.8293 -0.0255,-0.1684 -0.08756,-0.5644 -0.180482,-0.5553 z"
         inkscape:connector-curvature="0"
         style="fill:#c1c1c1;fill-opacity:1;fill-rule:evenodd;stroke:#000000;stroke-width:0.03824782px" />
      <path
         id="path2410"
         d="m 18.371982,1045.4055 c -0.638244,-0.097 -1.236915,0.071 -1.870857,-0.033 -0.485386,0.024 -3.044989,0.4414 -2.952507,-0.4655 -0.05387,-0.7833 0.183701,-1.5748 0.124351,-2.3677 -0.07461,-0.9476 0.214516,-1.2747 0.764672,-1.0315 1.115403,-0.084 3.219968,-0.1079 4.079877,0.2108 0.291064,0.5318 -0.02439,1.3414 -0.04919,1.9487 -0.07599,0.6161 0.05126,1.1461 -0.09635,1.7383 z"
         inkscape:connector-curvature="0"
         style="fill:#c1c1c1;fill-opacity:1;fill-rule:evenodd;stroke:#000000;stroke-width:0.05215669px" />
      <path
         id="path2412"
         d="m 17.614056,1041.3367 c -0.787437,0 -2.977724,-0.05 -3.765169,-0.05 -0.202961,-0.27 -0.03869,-0.6719 -0.08648,-0.9999 0.0035,-0.6093 0.08513,-0.9431 0.09772,-1.5522 0.252072,-0.2323 1.894934,-0.1593 2.174132,-0.2409 0.510014,0.019 1.020251,-0.02 1.530144,0 0.276311,0.1871 0.04289,0.714 0.08878,1.0241 1.3e-4,0.6042 0.0402,1.2133 -0.03913,1.8128 z"
         inkscape:connector-curvature="0"
         style="fill:#c1c1c1;fill-opacity:1;fill-rule:evenodd;stroke:#000000;stroke-width:0.0503036px" />
    </g>
    <g
       id="g7492"
       transform="matrix(1.1219759,0,0,1.1192534,226.09375,404.23816)" />
    <g
       id="g7500"
       transform="matrix(1.1219759,0,0,1.1192534,226.09375,404.23816)" />
    <g
       id="g7566"
       transform="matrix(1.1219759,0,0,1.1192534,226.09375,404.23816)" />
    <g
       id="g7574"
       transform="matrix(1.1219759,0,0,1.1192534,226.09375,404.23816)" />
    <g
       id="g7582"
       transform="matrix(1.1219759,0,0,1.1192534,226.09375,404.23816)" />
    <g
       id="g7598"
       transform="matrix(1.1219759,0,0,1.1192534,226.09375,404.23816)" />
    <g
       id="g7606"
       transform="matrix(1.1219759,0,0,1.1192534,226.09375,404.23816)" />
    <g
       id="g7612"
       transform="matrix(1.1219759,0,0,1.1192534,226.09375,404.23816)" />
    <g
       id="g7618"
       transform="matrix(1.1219759,0,0,1.1192534,226.09375,404.23816)" />
    <g
       id="g7624"
       transform="matrix(1.1219759,0,0,1.1192534,226.09375,404.23816)" />
    <g
       id="g7696"
       transform="matrix(1.1219759,0,0,1.1192534,226.09375,404.23816)" />
    <g
       id="g7704"
       transform="matrix(1.1219759,0,0,1.1192534,226.09375,404.23816)" />
    <g
       id="g7712"
       transform="matrix(1.1219759,0,0,1.1192534,226.09375,404.23816)" />
    <g
       id="g7720"
       transform="matrix(1.1219759,0,0,1.1192534,226.09375,404.23816)" />
    <g
       id="g7728"
       transform="matrix(1.1219759,0,0,1.1192534,226.09375,404.23816)" />
    <g
       id="g7736"
       transform="matrix(1.1219759,0,0,1.1192534,226.09375,404.23816)" />
  </g>
</svg>
