<?xml version="1.0" encoding="UTF-8" standalone="no"?>
<!-- Created with Inkscape (http://www.inkscape.org/) -->

<svg
   xmlns:dc="http://purl.org/dc/elements/1.1/"
   xmlns:cc="http://creativecommons.org/ns#"
   xmlns:rdf="http://www.w3.org/1999/02/22-rdf-syntax-ns#"
   xmlns:svg="http://www.w3.org/2000/svg"
   xmlns="http://www.w3.org/2000/svg"
   xmlns:sodipodi="http://sodipodi.sourceforge.net/DTD/sodipodi-0.dtd"
   xmlns:inkscape="http://www.inkscape.org/namespaces/inkscape"
   width="9.0311108mm"
   height="9.0311108mm"
   viewBox="0 0 31.999998 31.999999"
   id="svg16314"
   version="1.1"
   inkscape:version="0.91 r13725"
   sodipodi:docname="catedral.svg">
  <defs
     id="defs16316" />
  <sodipodi:namedview
     id="base"
     pagecolor="#ffffff"
     bordercolor="#666666"
     borderopacity="1.0"
     inkscape:pageopacity="0.0"
     inkscape:pageshadow="2"
     inkscape:zoom="15.839192"
     inkscape:cx="20.240836"
     inkscape:cy="15.360778"
     inkscape:document-units="px"
     inkscape:current-layer="layer1"
     showgrid="false"
     fit-margin-top="0"
     fit-margin-left="0"
     fit-margin-right="0"
     fit-margin-bottom="0"
     inkscape:window-width="1366"
     inkscape:window-height="705"
     inkscape:window-x="-8"
     inkscape:window-y="-8"
     inkscape:window-maximized="1" />
  <metadata
     id="metadata16319">
    <rdf:RDF>
      <cc:Work
         rdf:about="">
        <dc:format>image/svg+xml</dc:format>
        <dc:type
           rdf:resource="http://purl.org/dc/dcmitype/StillImage" />
        <dc:title></dc:title>
      </cc:Work>
    </rdf:RDF>
  </metadata>
  <g
     inkscape:label="Capa 1"
     inkscape:groupmode="layer"
     id="layer1"
     transform="translate(-190.48571,-221.48362)">
    <g
       id="g16201"
       transform="matrix(0.15414258,0,0,0.17287952,166.4703,208.51766)">
      <polygon
         id="polygon16203"
         points="213.4,154.1 215.4,150.6 221.6,154.3 224.3,154.1 230.4,147.7 236.3,153.8 242.3,153.8 247.2,149.6 249.9,154.1 260.8,154.1 262.9,154.6 262.9,128 260.8,126 262.9,124.8 262.9,120.5 273.8,120.5 273.8,106.1 270.3,100.9 273.8,97.2 279.7,90.3 279.7,82.4 277.7,77.7 282.2,75 287.8,78 285.1,82.4 285.4,89.5 296.1,98.6 293.2,102.4 293.2,118.1 299.9,117.6 301.6,115.7 303.6,156.9 308.8,156.9 305.8,161.2 306.5,257 158,254.8 158,158 161.5,158 161.5,127.7 162.2,126 164.7,115.9 166.9,115.9 166.9,109.4 169.1,106.8 169.1,94 177,87.8 177,77.7 180.4,77.7 181.9,87.8 188.6,94 188.6,107.8 190.5,109.4 190.9,115.4 193.4,115.2 195.7,124.5 197.4,126 197.4,154.6 "
         class="st90"
         style="fill:#e9c342" />
      <rect
         id="rect16205"
         height="14.7"
         width="14.7"
         class="st91"
         y="179.3"
         x="172.39999"
         style="fill:#756158" />
      <rect
         id="rect16207"
         height="13.1"
         width="12"
         class="st91"
         y="220.7"
         x="173.7"
         style="fill:#756158" />
      <rect
         id="rect16209"
         height="14.7"
         width="11"
         class="st91"
         y="179.3"
         x="279.20001"
         style="fill:#756158" />
      <rect
         id="rect16211"
         height="13.1"
         width="13.1"
         class="st91"
         y="220.7"
         x="277.29999"
         style="fill:#756158" />
      <path
         id="path16213"
         d="m 283.9,144.6 0,0 c -3.6,0 -6.6,-2.9 -6.6,-6.6 l 0,0 c 0,-3.6 2.9,-6.6 6.6,-6.6 l 0,0 c 3.6,0 6.6,2.9 6.6,6.6 l 0,0 c 0,3.7 -3,6.6 -6.6,6.6 z"
         class="st91"
         inkscape:connector-curvature="0"
         style="fill:#756158" />
      <rect
         id="rect16215"
         height="2.5"
         width="151.39999"
         class="st92"
         y="209"
         x="155.8"
         style="fill:#bf0606" />
      <rect
         id="rect16217"
         height="3.2"
         width="151.2"
         class="st92"
         y="245.2"
         x="157.5"
         style="fill:#bf0606" />
      <rect
         id="rect16219"
         height="96.300003"
         width="2.2"
         class="st92"
         y="160.7"
         x="201.39999"
         style="fill:#bf0606" />
      <rect
         id="rect16221"
         height="96.300003"
         width="2.7"
         class="st92"
         y="160.7"
         x="259.5"
         style="fill:#bf0606" />
      <rect
         id="rect16223"
         height="2.2"
         width="116"
         class="st92"
         y="158.5"
         x="156.10001"
         style="fill:#bf0606" />
      <rect
         id="rect16225"
         height="97"
         width="2.2"
         class="st92"
         y="158.5"
         x="157.5"
         style="fill:#bf0606" />
      <path
         id="path16227"
         d="m 207.8,257.3 c 0.3,-0.5 0,-21.5 0,-21.5 l 0.1,-4.3 0,-14.8 -2.3,-5.3 2.3,-2.8 1,-11.5 2,7.9 1.5,2.8 1.6,1.1 1.1,-0.3 0,-15.6 -1,-4.9 2,-1.5 1.1,-11.7 2.1,6.7 0,2.1 2,0 0,-9.7 -2.1,-3 3.3,0 6.1,-10.5 8.9,10 3.1,-0.3 -0.8,1.6 0.8,2.1 0,10 c 0,0 1.5,0.5 1.6,0 0.2,-0.5 0,-3.8 0,-3.8 0,0 2,-4.6 2,-3.9 0,0.7 1.6,3.1 1.6,3.1 l -0.8,4.1 0.8,3.1 3.1,0.3 0,4.1 c 0,0 -0.8,1.3 -1,1.8 -0.2,0.5 0,13.8 0,13.8 l 1,2.1 c 0,0 1.6,-1 1.6,-1.6 0,-0.6 1.1,-10.2 1.1,-10.2 l 3.3,8.9 2,1.3 c 0,0 0.3,3.8 0,4.6 -0.3,0.8 0.1,44.2 0.1,44.2 l -49.2,1.5 z"
         class="st91"
         inkscape:connector-curvature="0"
         style="fill:#756158" />
      <rect
         id="rect16229"
         height="31.5"
         width="5.1999998"
         class="st91"
         y="127"
         x="160.39999"
         style="fill:#756158" />
      <rect
         id="rect16231"
         height="31.5"
         width="5.1999998"
         class="st91"
         y="127"
         x="177.10001"
         style="fill:#756158" />
      <rect
         id="rect16233"
         height="31.5"
         width="5.1999998"
         class="st91"
         y="127"
         x="194.60001"
         style="fill:#756158" />
      <rect
         id="rect16235"
         height="40.099998"
         width="2.5999999"
         class="st91"
         transform="matrix(0,-1,1,0,52.7884,306.7644)"
         y="107"
         x="178.5"
         style="fill:#756158" />
      <path
         id="path16237"
         d="m 174.7,158.5 -6.7,0 0,-22.8 c 0,0 0.5,-4 3.4,-4 2.9,0 3.4,4 3.4,4 l 0,22.8 z"
         class="st91"
         inkscape:connector-curvature="0"
         style="fill:#756158" />
      <path
         id="path16239"
         d="m 191.8,158.5 -6.7,0 0,-22.8 c 0,0 0.5,-4 3.4,-4 2.9,0 3.4,4 3.4,4 l 0,22.8 z"
         class="st91"
         inkscape:connector-curvature="0"
         style="fill:#756158" />
      <path
         id="path16241"
         d="m 238.1,257 -13.4,0 0,-45.3 c 0,0 1,-8 6.7,-8 5.7,0 6.7,8 6.7,8 l 0,45.3 z"
         class="st90"
         inkscape:connector-curvature="0"
         style="fill:#e9c342" />
      <path
         id="path16243"
         d="m 174.7,123.1 -4.4,0 0,-14.8 c 0,0 0.3,-2.6 2.2,-2.6 1.9,0 2.2,2.6 2.2,2.6 l 0,14.8 z"
         class="st91"
         inkscape:connector-curvature="0"
         style="fill:#756158" />
      <path
         id="path16245"
         d="m 187.3,123.1 -4.4,0 0,-14.8 c 0,0 0.3,-2.6 2.2,-2.6 1.9,0 2.2,2.6 2.2,2.6 l 0,14.8 z"
         class="st91"
         inkscape:connector-curvature="0"
         style="fill:#756158" />
      <path
         id="path16247"
         d="m 281.4,121.4 -4.4,0 0,-14.8 c 0,0 0.3,-2.6 2.2,-2.6 1.9,0 2.2,2.6 2.2,2.6 l 0,14.8 z"
         class="st91"
         inkscape:connector-curvature="0"
         style="fill:#756158" />
      <path
         id="path16249"
         d="m 289,121.4 -4.4,0 0,-14.8 c 0,0 0.3,-2.6 2.2,-2.6 1.9,0 2.2,2.6 2.2,2.6 l 0,14.8 z"
         class="st91"
         inkscape:connector-curvature="0"
         style="fill:#756158" />
      <path
         id="path16251"
         d="m 181,104 -4.4,0 0,-10 c 0,0 0.3,-1.8 2.2,-1.8 1.9,0 2.2,1.8 2.2,1.8 l 0,10 z"
         class="st91"
         inkscape:connector-curvature="0"
         style="fill:#756158" />
    </g>
    <g
       id="g16253"
       transform="matrix(0.15414258,0,0,0.17287952,166.4703,208.51766)">
      <path
         id="path16255"
         d="m 256.2,259.1 c 0,-0.5 1.6,-44.4 1.6,-44.4 l -0.8,-2 0.8,-1.3 1.5,-29.9 -0.8,0 -0.7,-1.6 -3.8,-8.8 3.8,0 -0.3,-1.3 2,0 0,-1.3 4.2,0 0,-2.1 1.8,0 22.4,1 0,1.6 3.1,0.5 0,-2 2.8,-3.8 -1.3,-5 4.9,0 0,-1.6 24.2,0.8 0,1.8 4.9,0.3 -1,3.4 2.9,7.5 3.4,0.2 1.3,-1.3 20.3,0.7 0,2.6 3.6,0 0,0.8 3.4,0.2 -1.6,1.6 4.2,0 -2,2.3 -0.2,1 -3.8,3.8 0,3.1 0.7,0 0.2,1 1.2,25.6 1.5,0.3 -0.7,1.1 1.6,26.5 1.5,-0.1 -0.4,1.5 -0.9,0.2 c 0,0 0.5,13.3 0.5,13.6 0,0.3 1.2,2.3 1.2,2.3 l -11.6,0.2 -3.5,-1.3 -1,0 0.5,0.9 -12.3,0.1 -2,-1.1 -2.5,0.5 -4.6,-1.9 -0.2,-47 c 0,0 -2.1,-11.6 -17.4,-11.6 -15.3,0 -16.7,15.4 -16.7,15.4 l 0.8,0.2 -1.3,1.6 0,45.4 -35.4,0 z"
         class="st93"
         inkscape:connector-curvature="0"
         style="fill:#a98f6a" />
      <g
         id="g16257">
        <g
           id="g16259">
          <polygon
             id="polygon16261"
             points="292.3,212.6 292.4,212.5 292.1,212.4 "
             class="st91"
             style="fill:#756158" />
          <path
             id="path16263"
             d="m 310.5,192.9 c -17.7,0 -19.2,18.4 -19.2,18.4 l 0.3,0.5 c 0.5,-2.8 3.2,-14.8 16.7,-14.8 15.3,0 17.4,11.6 17.4,11.6 l 0.2,47 4.6,1.9 -1.6,-45.2 c -0.1,-0.1 -0.7,-19.4 -18.4,-19.4 z"
             class="st91"
             inkscape:connector-curvature="0"
             style="fill:#756158" />
        </g>
      </g>
      <path
         id="path16265"
         d="m 271.1,260.1 -1.3,-3.1 0,-14.7 0.5,-0.2 1.2,-0.7 -0.7,-2.6 -1.5,-0.8 1.1,-50.5 1.9,-0.9 7.6,0 1,0.8 0,2 -1,48 -0.8,0.3 -0.1,0.7 -1.1,1 -0.4,2.8 0.9,0.7 -0.3,14.1 -1.1,2 13.4,0 c 0,0 -1.6,-0.9 -1.5,-2 0.1,-1.2 -0.1,-14.2 -0.1,-14.2 l 0.5,-0.3 0.3,-0.5 0.3,-0.5 -1.6,-0.3 0,-1.3 -1.4,-1.3 0.3,-50.4 1.3,-1.3 -0.2,-1.5 -0.8,0 -0.5,-7.6 3.4,-3.2 0,-1.3 -29.4,-1.5 0,1.5 1.3,0.7 1.9,2.8 -0.9,7.8 1.1,1.4 -2.5,52.9 -1.4,0.5 0,2 -1.9,0.1 1.1,1.4 -1.1,17.2 12,0 0.5,0 z"
         class="st91"
         inkscape:connector-curvature="0"
         style="fill:#756158" />
      <polygon
         id="polygon16267"
         points="349.3,255.8 349.3,257.6 362.7,257 361.4,241.9 362.7,241.2 363.2,239.6 361.6,239.5 359,239.4 354.6,191.3 354.9,189.9 356,187.5 355.3,186 354.2,180.1 355.5,178.4 332.2,177.2 332.2,185.2 331.4,188 332.9,190.1 334.7,238.2 332.9,239.7 333.8,257.6 346.7,257.6 345.1,256.3 344.6,241.8 346,241.8 346,241.1 345.9,240.1 344,238.9 342,237.1 340.5,236.5 339.4,190.1 340.2,189.1 347.1,189.6 348.2,190.6 350.4,237.2 349.1,238.7 349.4,240.5 347.5,240.5 348.2,242.4 "
         class="st91"
         style="fill:#756158" />
      <path
         id="path16269"
         d="m 294,143.8 1.5,1 -0.5,2.6 c 0,0 0.6,0 0.7,0.3 0.1,0.3 0.4,0.6 0.4,0.6 0,0 -1.1,0.9 -0.8,1.1 0.2,0.2 0.6,1.1 0.6,1.1 l 0.4,1.2 c 0,0 0.2,0.5 0.5,0.8 0.2,0.4 0.1,1 0.1,1 l 0.8,1 c 0,0 0.4,0.5 0.4,0.8 0,0.3 0.3,1 0.1,1.2 -0.3,0.2 -0.5,1.2 -0.5,1.2 l 4.9,0.1 c 0,0 0,-1.6 0.2,-1.7 0.2,-0.1 1.2,-0.3 1.2,-0.3 0,0 1.6,1.2 6.2,-0.1 l 0.8,1.5 0,0.4 -0.4,0.8 -0.4,0.6 -1,0.5 c 0,0 -0.1,0.7 0.1,0.7 0.2,0 0.9,-0.2 2.5,-0.2 1.6,0 0.1,-0.1 0.6,-0.7 0.5,-0.6 1.1,-2.1 1.1,-2.1 l 1.5,1 0.6,0.4 0.9,0.7 0.7,-0.1 0.8,0.5 c 0,0 -0.8,0.2 0.9,0.4 1.7,0.2 1.9,0.7 1.9,0.7 l 0.6,-1.2 -0.4,-1.5 -0.7,0.3 -1.5,-0.2 -0.7,-0.6 c 0,0 -0.3,-3 -0.9,-3.7 -0.6,-0.7 0.2,-1.3 4,2.3 3.8,3.5 5.2,-2.4 5.2,-2.4 l -0.1,-1.3 c 0,0 -1.8,-0.7 -1.7,0.2 0.1,0.9 0.1,1.9 0.1,1.9 0,0 -0.7,2.8 -2.6,1.3 -2,-1.5 -4.3,-4.3 -5.8,-4.4 0,0 -2.8,-3.2 -8.8,-2.7 -6,0.5 -2.7,-3.3 -2.7,-3.3 0,0 -0.1,-5.4 -5.6,-5.6 l -0.8,-0.6 -1.3,0.1 0.3,1 -3.8,1.5 0.4,1.9 z"
         class="st91"
         inkscape:connector-curvature="0"
         style="fill:#756158" />
    </g>
    <path
       style="fill:none;fill-rule:evenodd;stroke:#000000;stroke-width:0.1;stroke-linecap:butt;stroke-linejoin:miter;stroke-opacity:1;stroke-miterlimit:4;stroke-dasharray:none"
       d="m 190.54884,237.51058 c 31.94608,-0.31567 31.94608,-0.31567 31.94608,-0.31567"
       id="path4172"
       inkscape:connector-curvature="0" />
    <path
       style="fill:none;fill-rule:evenodd;stroke:#000000;stroke-width:0.1;stroke-linecap:butt;stroke-linejoin:miter;stroke-opacity:1;stroke-miterlimit:4;stroke-dasharray:none"
       d="m 206.45875,221.47441 c -0.0631,32.26175 -0.0631,32.26175 -0.0631,32.26175"
       id="path4178"
       inkscape:connector-curvature="0" />
  </g>
</svg>
